<?xml version="1.0" encoding="UTF-8" standalone="no"?>
<!DOCTYPE svg PUBLIC "-//W3C//DTD SVG 1.1//EN"
 "http://www.w3.org/Graphics/SVG/1.1/DTD/svg11.dtd">
<!-- Generated by graphviz version 2.43.0 (0)
 -->
<!-- Title: pastafarianism Pages: 1 -->
<svg width="868pt" height="404pt"
 viewBox="0.00 0.00 868.10 404.00" xmlns="http://www.w3.org/2000/svg" xmlns:xlink="http://www.w3.org/1999/xlink">
<g id="graph0" class="graph" transform="scale(1 1) rotate(0) translate(4 400)">
<title>pastafarianism</title>
<polygon fill="white" stroke="transparent" points="-4,4 -4,-400 864.1,-400 864.1,4 -4,4"/>
<!-- CAGE Challenge BT -->
<g id="node1" class="node">
<title>CAGE Challenge BT</title>
<polygon fill="orange" stroke="black" points="394.71,-396 272.71,-396 272.71,-360 394.71,-360 394.71,-396"/>
<text text-anchor="middle" x="333.71" y="-375.8" font-family="Times,serif" font-size="9.00">Ⓜ CAGE Challenge BT</text>
</g>
<!-- Determine Action -->
<g id="node2" class="node">
<title>Determine Action</title>
<polygon fill="cyan" stroke="black" points="329.2,-298.54 329.2,-313.46 293.18,-324 242.24,-324 206.23,-313.46 206.23,-298.54 242.24,-288 293.18,-288 329.2,-298.54"/>
<text text-anchor="middle" x="267.71" y="-303.8" font-family="Times,serif" font-size="9.00">Determine Action</text>
</g>
<!-- CAGE Challenge BT&#45;&gt;Determine Action -->
<g id="edge1" class="edge">
<title>CAGE Challenge BT&#45;&gt;Determine Action</title>
<path fill="none" stroke="black" d="M317.4,-359.7C309.41,-351.22 299.64,-340.86 290.89,-331.58"/>
<polygon fill="black" stroke="black" points="293.25,-328.98 283.84,-324.1 288.15,-333.78 293.25,-328.98"/>
</g>
<!-- Execute Actions -->
<g id="node20" class="node">
<title>Execute Actions</title>
<ellipse fill="gray" stroke="black" cx="399.71" cy="-306" rx="53.23" ry="18"/>
<text text-anchor="middle" x="399.71" y="-303.8" font-family="Times,serif" font-size="9.00">Execute Actions</text>
</g>
<!-- CAGE Challenge BT&#45;&gt;Execute Actions -->
<g id="edge19" class="edge">
<title>CAGE Challenge BT&#45;&gt;Execute Actions</title>
<path fill="none" stroke="black" d="M350.03,-359.7C358.14,-351.09 368.08,-340.55 376.93,-331.17"/>
<polygon fill="black" stroke="black" points="379.73,-333.3 384.04,-323.62 374.63,-328.5 379.73,-333.3"/>
</g>
<!-- Setup Steps -->
<g id="node3" class="node">
<title>Setup Steps</title>
<polygon fill="orange" stroke="black" points="159.71,-252 75.71,-252 75.71,-216 159.71,-216 159.71,-252"/>
<text text-anchor="middle" x="117.71" y="-231.8" font-family="Times,serif" font-size="9.00">Ⓜ Setup Steps</text>
</g>
<!-- Determine Action&#45;&gt;Setup Steps -->
<g id="edge2" class="edge">
<title>Determine Action&#45;&gt;Setup Steps</title>
<path fill="none" stroke="black" d="M235.17,-289.81C214.19,-280.02 186.6,-267.15 163.44,-256.34"/>
<polygon fill="black" stroke="black" points="164.69,-253.06 154.14,-252 161.73,-259.4 164.69,-253.06"/>
</g>
<!-- Main Action Steps -->
<g id="node6" class="node">
<title>Main Action Steps</title>
<polygon fill="orange" stroke="black" points="475.21,-252 362.21,-252 362.21,-216 475.21,-216 475.21,-252"/>
<text text-anchor="middle" x="418.71" y="-231.8" font-family="Times,serif" font-size="9.00">Ⓜ Main Action Steps</text>
</g>
<!-- Determine Action&#45;&gt;Main Action Steps -->
<g id="edge5" class="edge">
<title>Determine Action&#45;&gt;Main Action Steps</title>
<path fill="none" stroke="black" d="M300.11,-289.98C321.3,-280.16 349.3,-267.18 372.78,-256.29"/>
<polygon fill="black" stroke="black" points="374.26,-259.46 381.86,-252.08 371.32,-253.11 374.26,-259.46"/>
</g>
<!-- Setup? -->
<g id="node4" class="node">
<title>Setup?</title>
<ellipse fill="gray" stroke="black" cx="27.71" cy="-162" rx="27.93" ry="18"/>
<text text-anchor="middle" x="27.71" y="-159.8" font-family="Times,serif" font-size="9.00">Setup?</text>
</g>
<!-- Setup Steps&#45;&gt;Setup? -->
<g id="edge3" class="edge">
<title>Setup Steps&#45;&gt;Setup?</title>
<path fill="none" stroke="black" d="M95.47,-215.7C82.53,-205.64 66.2,-192.93 52.81,-182.52"/>
<polygon fill="black" stroke="black" points="54.95,-179.75 44.91,-176.38 50.65,-185.28 54.95,-179.75"/>
</g>
<!-- Setup Action -->
<g id="node5" class="node">
<title>Setup Action</title>
<ellipse fill="gray" stroke="black" cx="117.71" cy="-162" rx="44.41" ry="18"/>
<text text-anchor="middle" x="117.71" y="-159.8" font-family="Times,serif" font-size="9.00">Setup Action</text>
</g>
<!-- Setup Steps&#45;&gt;Setup Action -->
<g id="edge4" class="edge">
<title>Setup Steps&#45;&gt;Setup Action</title>
<path fill="none" stroke="black" d="M117.71,-215.7C117.71,-207.98 117.71,-198.71 117.71,-190.11"/>
<polygon fill="black" stroke="black" points="121.21,-190.1 117.71,-180.1 114.21,-190.1 121.21,-190.1"/>
</g>
<!-- Change Strategy Selector -->
<g id="node7" class="node">
<title>Change Strategy Selector</title>
<polygon fill="cyan" stroke="black" points="349.69,-154.54 349.69,-169.46 299.91,-180 229.51,-180 179.73,-169.46 179.73,-154.54 229.51,-144 299.91,-144 349.69,-154.54"/>
<text text-anchor="middle" x="264.71" y="-159.8" font-family="Times,serif" font-size="9.00">Change Strategy Selector</text>
</g>
<!-- Main Action Steps&#45;&gt;Change Strategy Selector -->
<g id="edge6" class="edge">
<title>Main Action Steps&#45;&gt;Change Strategy Selector</title>
<path fill="none" stroke="black" d="M381.04,-215.88C359.85,-206.24 333.22,-194.14 310.79,-183.95"/>
<polygon fill="black" stroke="black" points="312.02,-180.66 301.47,-179.71 309.12,-187.03 312.02,-180.66"/>
</g>
<!-- Get PPO Action -->
<g id="node11" class="node">
<title>Get PPO Action</title>
<ellipse fill="gray" stroke="black" cx="418.71" cy="-162" rx="51.27" ry="18"/>
<text text-anchor="middle" x="418.71" y="-159.8" font-family="Times,serif" font-size="9.00">Get PPO Action</text>
</g>
<!-- Main Action Steps&#45;&gt;Get PPO Action -->
<g id="edge10" class="edge">
<title>Main Action Steps&#45;&gt;Get PPO Action</title>
<path fill="none" stroke="black" d="M418.71,-215.7C418.71,-207.98 418.71,-198.71 418.71,-190.11"/>
<polygon fill="black" stroke="black" points="422.21,-190.1 418.71,-180.1 415.21,-190.1 422.21,-190.1"/>
</g>
<!-- Deploy Decoy Selector -->
<g id="node12" class="node">
<title>Deploy Decoy Selector</title>
<polygon fill="cyan" stroke="black" points="641.19,-154.54 641.19,-169.46 596.39,-180 533.03,-180 488.23,-169.46 488.23,-154.54 533.03,-144 596.39,-144 641.19,-154.54"/>
<text text-anchor="middle" x="564.71" y="-159.8" font-family="Times,serif" font-size="9.00">Deploy Decoy Selector</text>
</g>
<!-- Main Action Steps&#45;&gt;Deploy Decoy Selector -->
<g id="edge11" class="edge">
<title>Main Action Steps&#45;&gt;Deploy Decoy Selector</title>
<path fill="none" stroke="black" d="M454.43,-215.88C474.58,-206.22 499.91,-194.07 521.21,-183.86"/>
<polygon fill="black" stroke="black" points="522.87,-186.94 530.37,-179.47 519.84,-180.63 522.87,-186.94"/>
</g>
<!-- Remove Decoys Selector -->
<g id="node16" class="node">
<title>Remove Decoys Selector</title>
<polygon fill="cyan" stroke="black" points="821.19,-154.54 821.19,-169.46 773.46,-180 705.96,-180 658.23,-169.46 658.23,-154.54 705.96,-144 773.46,-144 821.19,-154.54"/>
<text text-anchor="middle" x="739.71" y="-159.8" font-family="Times,serif" font-size="9.00">Remove Decoys Selector</text>
</g>
<!-- Main Action Steps&#45;&gt;Remove Decoys Selector -->
<g id="edge15" class="edge">
<title>Main Action Steps&#45;&gt;Remove Decoys Selector</title>
<path fill="none" stroke="black" d="M475.36,-220.65C530.91,-208.53 615.55,-190.08 674.02,-177.32"/>
<polygon fill="black" stroke="black" points="674.87,-180.72 683.9,-175.17 673.38,-173.88 674.87,-180.72"/>
</g>
<!-- Inverter -->
<g id="node8" class="node">
<title>Inverter</title>
<ellipse fill="ghostwhite" stroke="black" cx="243.71" cy="-90" rx="31.51" ry="18"/>
<text text-anchor="middle" x="243.71" y="-87.8" font-family="Times,serif" font-size="9.00">Inverter</text>
</g>
<!-- Change Strategy Selector&#45;&gt;Inverter -->
<g id="edge7" class="edge">
<title>Change Strategy Selector&#45;&gt;Inverter</title>
<path fill="none" stroke="black" d="M259.52,-143.7C257.18,-135.9 254.37,-126.51 251.76,-117.83"/>
<polygon fill="black" stroke="black" points="255.07,-116.68 248.84,-108.1 248.37,-118.69 255.07,-116.68"/>
</g>
<!-- Change Strategy -->
<g id="node10" class="node">
<title>Change Strategy</title>
<ellipse fill="gray" stroke="black" cx="348.71" cy="-90" rx="54.7" ry="18"/>
<text text-anchor="middle" x="348.71" y="-87.8" font-family="Times,serif" font-size="9.00">Change Strategy</text>
</g>
<!-- Change Strategy Selector&#45;&gt;Change Strategy -->
<g id="edge9" class="edge">
<title>Change Strategy Selector&#45;&gt;Change Strategy</title>
<path fill="none" stroke="black" d="M285.48,-143.7C296.45,-134.55 310.05,-123.22 321.82,-113.41"/>
<polygon fill="black" stroke="black" points="324.18,-116 329.62,-106.91 319.7,-110.62 324.18,-116"/>
</g>
<!-- Change Strategy? -->
<g id="node9" class="node">
<title>Change Strategy?</title>
<ellipse fill="gray" stroke="black" cx="243.71" cy="-18" rx="57.32" ry="18"/>
<text text-anchor="middle" x="243.71" y="-15.8" font-family="Times,serif" font-size="9.00">Change Strategy?</text>
</g>
<!-- Inverter&#45;&gt;Change Strategy? -->
<g id="edge8" class="edge">
<title>Inverter&#45;&gt;Change Strategy?</title>
<path fill="none" stroke="black" d="M243.71,-71.7C243.71,-63.98 243.71,-54.71 243.71,-46.11"/>
<polygon fill="black" stroke="black" points="247.21,-46.1 243.71,-36.1 240.21,-46.1 247.21,-46.1"/>
</g>
<!-- Inverter* -->
<g id="node13" class="node">
<title>Inverter*</title>
<ellipse fill="ghostwhite" stroke="black" cx="487.71" cy="-90" rx="34.13" ry="18"/>
<text text-anchor="middle" x="487.71" y="-87.8" font-family="Times,serif" font-size="9.00">Inverter*</text>
</g>
<!-- Deploy Decoy Selector&#45;&gt;Inverter* -->
<g id="edge12" class="edge">
<title>Deploy Decoy Selector&#45;&gt;Inverter*</title>
<path fill="none" stroke="black" d="M545.68,-143.7C535.43,-134.38 522.68,-122.79 511.75,-112.86"/>
<polygon fill="black" stroke="black" points="513.93,-110.11 504.18,-105.97 509.22,-115.29 513.93,-110.11"/>
</g>
<!-- Deploy Decoy -->
<g id="node15" class="node">
<title>Deploy Decoy</title>
<ellipse fill="gray" stroke="black" cx="585.71" cy="-90" rx="46.38" ry="18"/>
<text text-anchor="middle" x="585.71" y="-87.8" font-family="Times,serif" font-size="9.00">Deploy Decoy</text>
</g>
<!-- Deploy Decoy Selector&#45;&gt;Deploy Decoy -->
<g id="edge14" class="edge">
<title>Deploy Decoy Selector&#45;&gt;Deploy Decoy</title>
<path fill="none" stroke="black" d="M569.9,-143.7C572.24,-135.9 575.06,-126.51 577.66,-117.83"/>
<polygon fill="black" stroke="black" points="581.06,-118.69 580.58,-108.1 574.36,-116.68 581.06,-118.69"/>
</g>
<!-- Action is Deploy Decoy? -->
<g id="node14" class="node">
<title>Action is Deploy Decoy?</title>
<ellipse fill="gray" stroke="black" cx="487.71" cy="-18" rx="73.8" ry="18"/>
<text text-anchor="middle" x="487.71" y="-15.8" font-family="Times,serif" font-size="9.00">Action is Deploy Decoy?</text>
</g>
<!-- Inverter*&#45;&gt;Action is Deploy Decoy? -->
<g id="edge13" class="edge">
<title>Inverter*&#45;&gt;Action is Deploy Decoy?</title>
<path fill="none" stroke="black" d="M487.71,-71.7C487.71,-63.98 487.71,-54.71 487.71,-46.11"/>
<polygon fill="black" stroke="black" points="491.21,-46.1 487.71,-36.1 484.21,-46.1 491.21,-46.1"/>
</g>
<!-- Inverter** -->
<g id="node17" class="node">
<title>Inverter**</title>
<ellipse fill="ghostwhite" stroke="black" cx="702.71" cy="-90" rx="36.9" ry="18"/>
<text text-anchor="middle" x="702.71" y="-87.8" font-family="Times,serif" font-size="9.00">Inverter**</text>
</g>
<!-- Remove Decoys Selector&#45;&gt;Inverter** -->
<g id="edge16" class="edge">
<title>Remove Decoys Selector&#45;&gt;Inverter**</title>
<path fill="none" stroke="black" d="M730.57,-143.7C726.25,-135.52 721,-125.6 716.24,-116.58"/>
<polygon fill="black" stroke="black" points="719.27,-114.83 711.5,-107.62 713.08,-118.1 719.27,-114.83"/>
</g>
<!-- Remove Decoys -->
<g id="node19" class="node">
<title>Remove Decoys</title>
<ellipse fill="gray" stroke="black" cx="808.71" cy="-90" rx="51.27" ry="18"/>
<text text-anchor="middle" x="808.71" y="-87.8" font-family="Times,serif" font-size="9.00">Remove Decoys</text>
</g>
<!-- Remove Decoys Selector&#45;&gt;Remove Decoys -->
<g id="edge18" class="edge">
<title>Remove Decoys Selector&#45;&gt;Remove Decoys</title>
<path fill="none" stroke="black" d="M756.77,-143.7C765.46,-134.88 776.16,-124.03 785.58,-114.47"/>
<polygon fill="black" stroke="black" points="788.27,-116.72 792.8,-107.14 783.29,-111.81 788.27,-116.72"/>
</g>
<!-- Action is Restore Host? -->
<g id="node18" class="node">
<title>Action is Restore Host?</title>
<ellipse fill="gray" stroke="black" cx="702.71" cy="-18" rx="71.68" ry="18"/>
<text text-anchor="middle" x="702.71" y="-15.8" font-family="Times,serif" font-size="9.00">Action is Restore Host?</text>
</g>
<!-- Inverter**&#45;&gt;Action is Restore Host? -->
<g id="edge17" class="edge">
<title>Inverter**&#45;&gt;Action is Restore Host?</title>
<path fill="none" stroke="black" d="M702.71,-71.7C702.71,-63.98 702.71,-54.71 702.71,-46.11"/>
<polygon fill="black" stroke="black" points="706.21,-46.1 702.71,-36.1 699.21,-46.1 706.21,-46.1"/>
</g>
</g>
</svg>
