<?xml version="1.0" encoding="UTF-8" standalone="no"?>
<!DOCTYPE svg PUBLIC "-//W3C//DTD SVG 1.1//EN"
 "http://www.w3.org/Graphics/SVG/1.1/DTD/svg11.dtd">
<!-- Generated by graphviz version 2.43.0 (0)
 -->
<!-- Title: pastafarianism Pages: 1 -->
<svg width="1123pt" height="188pt"
 viewBox="0.00 0.00 1122.54 188.00" xmlns="http://www.w3.org/2000/svg" xmlns:xlink="http://www.w3.org/1999/xlink">
<g id="graph0" class="graph" transform="scale(1 1) rotate(0) translate(4 184)">
<title>pastafarianism</title>
<polygon fill="white" stroke="transparent" points="-4,4 -4,-184 1118.54,-184 1118.54,4 -4,4"/>
<!-- CAGE Challenge BT -->
<g id="node1" class="node">
<title>CAGE Challenge BT</title>
<polygon fill="orange" stroke="black" points="668.16,-180 546.16,-180 546.16,-144 668.16,-144 668.16,-180"/>
<text text-anchor="middle" x="607.16" y="-159.8" font-family="Times,serif" font-size="9.00">Ⓜ CAGE Challenge BT</text>
</g>
<!-- Change Strategy Selector -->
<g id="node2" class="node">
<title>Change Strategy Selector</title>
<polygon fill="cyan" stroke="black" points="257.14,-82.54 257.14,-97.46 207.36,-108 136.96,-108 87.18,-97.46 87.18,-82.54 136.96,-72 207.36,-72 257.14,-82.54"/>
<text text-anchor="middle" x="172.16" y="-87.8" font-family="Times,serif" font-size="9.00">Change Strategy Selector</text>
</g>
<!-- CAGE Challenge BT&#45;&gt;Change Strategy Selector -->
<g id="edge1" class="edge">
<title>CAGE Challenge BT&#45;&gt;Change Strategy Selector</title>
<path fill="none" stroke="black" d="M546.1,-151.98C477.81,-141.77 363.94,-124.44 266.16,-108 259.02,-106.8 251.58,-105.51 244.15,-104.21"/>
<polygon fill="black" stroke="black" points="244.52,-100.72 234.06,-102.42 243.3,-107.61 244.52,-100.72"/>
</g>
<!-- Get PPO Action -->
<g id="node5" class="node">
<title>Get PPO Action</title>
<ellipse fill="gray" stroke="black" cx="326.16" cy="-90" rx="51.27" ry="18"/>
<text text-anchor="middle" x="326.16" y="-87.8" font-family="Times,serif" font-size="9.00">Get PPO Action</text>
</g>
<!-- CAGE Challenge BT&#45;&gt;Get PPO Action -->
<g id="edge4" class="edge">
<title>CAGE Challenge BT&#45;&gt;Get PPO Action</title>
<path fill="none" stroke="black" d="M546.02,-147.04C501.56,-136.72 439.98,-122.07 386.16,-108 382.32,-107 378.35,-105.93 374.37,-104.84"/>
<polygon fill="black" stroke="black" points="375.08,-101.41 364.5,-102.12 373.21,-108.16 375.08,-101.41"/>
</g>
<!-- Analyze Selector -->
<g id="node6" class="node">
<title>Analyze Selector</title>
<polygon fill="cyan" stroke="black" points="513.14,-82.54 513.14,-97.46 478.59,-108 429.72,-108 395.17,-97.46 395.17,-82.54 429.72,-72 478.59,-72 513.14,-82.54"/>
<text text-anchor="middle" x="454.16" y="-87.8" font-family="Times,serif" font-size="9.00">Analyze Selector</text>
</g>
<!-- CAGE Challenge BT&#45;&gt;Analyze Selector -->
<g id="edge5" class="edge">
<title>CAGE Challenge BT&#45;&gt;Analyze Selector</title>
<path fill="none" stroke="black" d="M569.73,-143.88C547.26,-133.6 518.64,-120.5 495.5,-109.92"/>
<polygon fill="black" stroke="black" points="496.83,-106.68 486.28,-105.7 493.92,-113.04 496.83,-106.68"/>
</g>
<!-- Deploy Decoy Selector -->
<g id="node9" class="node">
<title>Deploy Decoy Selector</title>
<polygon fill="cyan" stroke="black" points="683.64,-82.54 683.64,-97.46 638.84,-108 575.48,-108 530.68,-97.46 530.68,-82.54 575.48,-72 638.84,-72 683.64,-82.54"/>
<text text-anchor="middle" x="607.16" y="-87.8" font-family="Times,serif" font-size="9.00">Deploy Decoy Selector</text>
</g>
<!-- CAGE Challenge BT&#45;&gt;Deploy Decoy Selector -->
<g id="edge8" class="edge">
<title>CAGE Challenge BT&#45;&gt;Deploy Decoy Selector</title>
<path fill="none" stroke="black" d="M607.16,-143.7C607.16,-135.98 607.16,-126.71 607.16,-118.11"/>
<polygon fill="black" stroke="black" points="610.66,-118.1 607.16,-108.1 603.66,-118.1 610.66,-118.1"/>
</g>
<!-- Action is Analyze?* -->
<g id="node12" class="node">
<title>Action is Analyze?*</title>
<ellipse fill="gray" stroke="black" cx="762.16" cy="-90" rx="60.74" ry="18"/>
<text text-anchor="middle" x="762.16" y="-87.8" font-family="Times,serif" font-size="9.00">Action is Analyze?*</text>
</g>
<!-- CAGE Challenge BT&#45;&gt;Action is Analyze?* -->
<g id="edge11" class="edge">
<title>CAGE Challenge BT&#45;&gt;Action is Analyze?*</title>
<path fill="none" stroke="black" d="M645.07,-143.88C668.08,-133.49 697.44,-120.23 721,-109.59"/>
<polygon fill="black" stroke="black" points="722.71,-112.66 730.38,-105.35 719.82,-106.28 722.71,-112.66"/>
</g>
<!-- Action is Deploy Decoy?* -->
<g id="node13" class="node">
<title>Action is Deploy Decoy?*</title>
<ellipse fill="gray" stroke="black" cx="917.16" cy="-90" rx="76.58" ry="18"/>
<text text-anchor="middle" x="917.16" y="-87.8" font-family="Times,serif" font-size="9.00">Action is Deploy Decoy?*</text>
</g>
<!-- CAGE Challenge BT&#45;&gt;Action is Deploy Decoy?* -->
<g id="edge12" class="edge">
<title>CAGE Challenge BT&#45;&gt;Action is Deploy Decoy?*</title>
<path fill="none" stroke="black" d="M668.4,-147.17C722.06,-135.05 799.72,-117.52 853.95,-105.27"/>
<polygon fill="black" stroke="black" points="854.81,-108.67 863.79,-103.05 853.27,-101.84 854.81,-108.67"/>
</g>
<!-- Remove Decoys -->
<g id="node14" class="node">
<title>Remove Decoys</title>
<ellipse fill="gray" stroke="black" cx="1063.16" cy="-90" rx="51.27" ry="18"/>
<text text-anchor="middle" x="1063.16" y="-87.8" font-family="Times,serif" font-size="9.00">Remove Decoys</text>
</g>
<!-- CAGE Challenge BT&#45;&gt;Remove Decoys -->
<g id="edge13" class="edge">
<title>CAGE Challenge BT&#45;&gt;Remove Decoys</title>
<path fill="none" stroke="black" d="M668.33,-155.55C746.53,-147.97 885.83,-132.34 1003.16,-108 1007.33,-107.13 1011.64,-106.13 1015.95,-105.06"/>
<polygon fill="black" stroke="black" points="1017.13,-108.37 1025.91,-102.44 1015.35,-101.59 1017.13,-108.37"/>
</g>
<!-- Change Strategy? -->
<g id="node3" class="node">
<title>Change Strategy?</title>
<ellipse fill="gray" stroke="black" cx="57.16" cy="-18" rx="57.32" ry="18"/>
<text text-anchor="middle" x="57.16" y="-15.8" font-family="Times,serif" font-size="9.00">Change Strategy?</text>
</g>
<!-- Change Strategy Selector&#45;&gt;Change Strategy? -->
<g id="edge2" class="edge">
<title>Change Strategy Selector&#45;&gt;Change Strategy?</title>
<path fill="none" stroke="black" d="M144.03,-71.88C128.09,-62.18 108.04,-49.97 91.23,-39.74"/>
<polygon fill="black" stroke="black" points="92.62,-36.49 82.26,-34.28 88.98,-42.47 92.62,-36.49"/>
</g>
<!-- Change Strategy -->
<g id="node4" class="node">
<title>Change Strategy</title>
<ellipse fill="gray" stroke="black" cx="187.16" cy="-18" rx="54.7" ry="18"/>
<text text-anchor="middle" x="187.16" y="-15.8" font-family="Times,serif" font-size="9.00">Change Strategy</text>
</g>
<!-- Change Strategy Selector&#45;&gt;Change Strategy -->
<g id="edge3" class="edge">
<title>Change Strategy Selector&#45;&gt;Change Strategy</title>
<path fill="none" stroke="black" d="M175.87,-71.7C177.52,-63.98 179.51,-54.71 181.35,-46.11"/>
<polygon fill="black" stroke="black" points="184.82,-46.62 183.49,-36.1 177.97,-45.15 184.82,-46.62"/>
</g>
<!-- Action is Analyze? -->
<g id="node7" class="node">
<title>Action is Analyze?</title>
<ellipse fill="gray" stroke="black" cx="355.16" cy="-18" rx="58.13" ry="18"/>
<text text-anchor="middle" x="355.16" y="-15.8" font-family="Times,serif" font-size="9.00">Action is Analyze?</text>
</g>
<!-- Analyze Selector&#45;&gt;Action is Analyze? -->
<g id="edge6" class="edge">
<title>Analyze Selector&#45;&gt;Action is Analyze?</title>
<path fill="none" stroke="black" d="M429.94,-71.88C416.67,-62.49 400.08,-50.76 385.9,-40.74"/>
<polygon fill="black" stroke="black" points="387.62,-37.67 377.43,-34.75 383.58,-43.38 387.62,-37.67"/>
</g>
<!-- Analyze -->
<g id="node8" class="node">
<title>Analyze</title>
<ellipse fill="gray" stroke="black" cx="462.16" cy="-18" rx="30.7" ry="18"/>
<text text-anchor="middle" x="462.16" y="-15.8" font-family="Times,serif" font-size="9.00">Analyze</text>
</g>
<!-- Analyze Selector&#45;&gt;Analyze -->
<g id="edge7" class="edge">
<title>Analyze Selector&#45;&gt;Analyze</title>
<path fill="none" stroke="black" d="M456.14,-71.7C457.02,-63.98 458.08,-54.71 459.06,-46.11"/>
<polygon fill="black" stroke="black" points="462.54,-46.44 460.2,-36.1 455.59,-45.64 462.54,-46.44"/>
</g>
<!-- Action is Deploy Decoy? -->
<g id="node10" class="node">
<title>Action is Deploy Decoy?</title>
<ellipse fill="gray" stroke="black" cx="600.16" cy="-18" rx="73.8" ry="18"/>
<text text-anchor="middle" x="600.16" y="-15.8" font-family="Times,serif" font-size="9.00">Action is Deploy Decoy?</text>
</g>
<!-- Deploy Decoy Selector&#45;&gt;Action is Deploy Decoy? -->
<g id="edge9" class="edge">
<title>Deploy Decoy Selector&#45;&gt;Action is Deploy Decoy?</title>
<path fill="none" stroke="black" d="M605.43,-71.7C604.66,-63.98 603.73,-54.71 602.87,-46.11"/>
<polygon fill="black" stroke="black" points="606.35,-45.71 601.87,-36.1 599.38,-46.4 606.35,-45.71"/>
</g>
<!-- Deploy Decoy -->
<g id="node11" class="node">
<title>Deploy Decoy</title>
<ellipse fill="gray" stroke="black" cx="738.16" cy="-18" rx="46.38" ry="18"/>
<text text-anchor="middle" x="738.16" y="-15.8" font-family="Times,serif" font-size="9.00">Deploy Decoy</text>
</g>
<!-- Deploy Decoy Selector&#45;&gt;Deploy Decoy -->
<g id="edge10" class="edge">
<title>Deploy Decoy Selector&#45;&gt;Deploy Decoy</title>
<path fill="none" stroke="black" d="M639.2,-71.88C658.56,-61.53 683.24,-48.34 703.11,-37.73"/>
<polygon fill="black" stroke="black" points="704.98,-40.69 712.15,-32.9 701.68,-34.52 704.98,-40.69"/>
</g>
</g>
</svg>
