<?xml version="1.0" encoding="UTF-8" standalone="no"?>
<!DOCTYPE svg PUBLIC "-//W3C//DTD SVG 1.1//EN"
 "http://www.w3.org/Graphics/SVG/1.1/DTD/svg11.dtd">
<!-- Generated by graphviz version 2.43.0 (0)
 -->
<!-- Title: pastafarianism Pages: 1 -->
<svg width="401pt" height="116pt"
 viewBox="0.00 0.00 401.36 116.00" xmlns="http://www.w3.org/2000/svg" xmlns:xlink="http://www.w3.org/1999/xlink">
<g id="graph0" class="graph" transform="scale(1 1) rotate(0) translate(4 112)">
<title>pastafarianism</title>
<polygon fill="white" stroke="transparent" points="-4,4 -4,-112 397.36,-112 397.36,4 -4,4"/>
<!-- ActionSeq -->
<g id="node1" class="node">
<title>ActionSeq</title>
<polygon fill="orange" stroke="black" points="230.11,-108 154.11,-108 154.11,-72 230.11,-72 230.11,-108"/>
<text text-anchor="middle" x="192.11" y="-87.8" font-family="Times,serif" font-size="9.00">Ⓜ ActionSeq</text>
</g>
<!-- PPOAction -->
<g id="node2" class="node">
<title>PPOAction</title>
<ellipse fill="gray" stroke="black" cx="38.11" cy="-18" rx="38.21" ry="18"/>
<text text-anchor="middle" x="38.11" y="-15.8" font-family="Times,serif" font-size="9.00">PPOAction</text>
</g>
<!-- ActionSeq&#45;&gt;PPOAction -->
<g id="edge1" class="edge">
<title>ActionSeq&#45;&gt;PPOAction</title>
<path fill="none" stroke="black" d="M154.43,-71.88C129.91,-60.73 98.1,-46.27 73.95,-35.29"/>
<polygon fill="black" stroke="black" points="75.32,-32.07 64.77,-31.12 72.43,-38.45 75.32,-32.07"/>
</g>
<!-- SelectDecoy -->
<g id="node3" class="node">
<title>SelectDecoy</title>
<ellipse fill="gray" stroke="black" cx="137.11" cy="-18" rx="42.95" ry="18"/>
<text text-anchor="middle" x="137.11" y="-15.8" font-family="Times,serif" font-size="9.00">SelectDecoy</text>
</g>
<!-- ActionSeq&#45;&gt;SelectDecoy -->
<g id="edge2" class="edge">
<title>ActionSeq&#45;&gt;SelectDecoy</title>
<path fill="none" stroke="black" d="M178.51,-71.7C171.89,-63.27 163.8,-52.97 156.54,-43.73"/>
<polygon fill="black" stroke="black" points="159.1,-41.32 150.17,-35.62 153.59,-45.65 159.1,-41.32"/>
</g>
<!-- RemoveDecoys -->
<g id="node4" class="node">
<title>RemoveDecoys</title>
<ellipse fill="gray" stroke="black" cx="247.11" cy="-18" rx="49.8" ry="18"/>
<text text-anchor="middle" x="247.11" y="-15.8" font-family="Times,serif" font-size="9.00">RemoveDecoys</text>
</g>
<!-- ActionSeq&#45;&gt;RemoveDecoys -->
<g id="edge3" class="edge">
<title>ActionSeq&#45;&gt;RemoveDecoys</title>
<path fill="none" stroke="black" d="M205.7,-71.7C212.33,-63.27 220.41,-52.97 227.67,-43.73"/>
<polygon fill="black" stroke="black" points="230.62,-45.65 234.04,-35.62 225.11,-41.32 230.62,-45.65"/>
</g>
<!-- UpdateEnv -->
<g id="node5" class="node">
<title>UpdateEnv</title>
<ellipse fill="gray" stroke="black" cx="354.11" cy="-18" rx="39.02" ry="18"/>
<text text-anchor="middle" x="354.11" y="-15.8" font-family="Times,serif" font-size="9.00">UpdateEnv</text>
</g>
<!-- ActionSeq&#45;&gt;UpdateEnv -->
<g id="edge4" class="edge">
<title>ActionSeq&#45;&gt;UpdateEnv</title>
<path fill="none" stroke="black" d="M230.5,-72.41C256.71,-61.08 291.26,-46.16 317.16,-34.96"/>
<polygon fill="black" stroke="black" points="318.84,-38.05 326.63,-30.87 316.06,-31.63 318.84,-38.05"/>
</g>
</g>
</svg>
